<?xml version="1.0" standalone="no"?>
<!DOCTYPE svg PUBLIC "-//W3C//DTD SVG 20010904//EN"
 "http://www.w3.org/TR/2001/REC-SVG-20010904/DTD/svg10.dtd">
<svg version="1.0" xmlns="http://www.w3.org/2000/svg"
 width="1036.000000pt" height="1036.000000pt" viewBox="0 0 1036.000000 1036.000000"
 preserveAspectRatio="xMidYMid meet">
<metadata>
Created by potrace 1.14, written by Peter Selinger 2001-2017
</metadata>
<g transform="translate(0.000000,1036.000000) scale(0.100000,-0.100000)"
fill="#000000" stroke="none">
<path d="M0 5180 l0 -3440 3440 0 3440 0 0 177 0 176 -137 -6 c-619 -30 -1299
160 -1825 509 -251 167 -533 423 -712 649 -369 465 -593 1005 -660 1595 -21
176 -21 504 0 680 57 498 228 970 501 1378 221 330 544 652 873 868 532 350
1205 537 1823 507 l137 -6 0 176 0 177 -3440 0 -3440 0 0 -3440z"/>
<path d="M7300 8054 c-217 -19 -396 -47 -540 -85 -637 -167 -1184 -533 -1578
-1057 -288 -383 -467 -814 -544 -1307 -29 -189 -32 -606 -5 -790 143 -970 717
-1764 1582 -2190 810 -398 1757 -388 2568 28 797 408 1368 1189 1511 2067 45
273 47 664 7 915 -116 716 -485 1351 -1045 1797 -411 329 -890 532 -1422 603
-108 15 -448 27 -534 19z"/>
</g>
</svg>
